<svg viewBox="0 0 32 32" xmlns="http://www.w3.org/2000/svg">
  <g fill="#fff">
    <path d="M5.226 5.226c-.985 0-1.796.81-1.796 1.795v17.958c0 .985.811 1.795 1.796 1.795h21.548c.985 0 1.796-.81 1.796-1.795V7.021c0-.985-.811-1.795-1.796-1.795H5.226ZM26.774 3.43a3.609 3.609 0 0 1 3.592 3.591v17.958a3.609 3.609 0 0 1-3.592 3.591H5.226a3.609 3.609 0 0 1-3.592-3.591V7.021A3.609 3.609 0 0 1 5.226 3.43h21.548Z" />
    <path d="M24.979 8.817c0-.985-.811-1.796-1.796-1.796h-3.592c-.985 0-1.795.811-1.795 1.796v14.366c0 .985.81 1.796 1.795 1.796h3.592c.985 0 1.796-.811 1.796-1.796V8.817Z" />
  </g>
</svg>
