<svg viewBox="0 0 32 32" xmlns="http://www.w3.org/2000/svg" fill="#fff">
  <circle fill-opacity="0.15" cx="15.672" cy="15.184" r="11.544"/>
  <path d="M11.244 30.525c.532.036.656-.003 1.038-.165.241-.138.38-.35.499-.677l2.204-6.471c.068-.536 1.211-1.736 2.556-1.608.093.009.172.073.26.115 3.57 1.694 9.404 3.535 11.036.032.054-.116.099-.21.088-.324-.014-.154-.16-.311-.218-.386l-9.194-11.43 2.554-7.6a.456.456 0 0 0 .003-.288.394.394 0 0 0-.344-.26.503.503 0 0 0-.376.167L4.001 19.347c-.614.699-.878.905-.925 1.864-.039.79.357 1.251.646 1.623l6.538 7.135c.236.298.584.53.984.556Zm7.953-16.495a1.783 1.783 0 1 1-.003 3.565 1.783 1.783 0 0 1 .003-3.565Zm.294.529a.902.902 0 1 1 0 1.804.902.902 0 0 1 0-1.804Z"/>
</svg>
