<svg viewBox="0 0 192 192" xmlns="http://www.w3.org/2000/svg">
  <circle fill-opacity="0.15" cx="94.03" cy="91.103" r="69.262"/>
  <path d="M67.462 183.152c3.194.214 3.935-.02 6.228-.992 1.451-.825 2.28-2.098 2.994-4.065l13.226-38.822c.407-3.214 7.267-10.419 15.336-9.648.56.053 1.035.435 1.563.686 21.42 10.166 56.423 21.215 66.215.195.323-.694.591-1.259.529-1.946-.085-.923-.964-1.866-1.31-2.315l-55.162-68.581 15.318-45.596c.175-.528.22-1.11.021-1.729-.355-.933-1.135-1.481-2.062-1.564-.875-.01-1.619.35-2.256 1.005L24.005 116.083c-3.682 4.194-5.267 5.429-5.551 11.184-.233 4.736 2.142 7.504 3.877 9.739l39.23 42.808c1.418 1.787 3.506 3.177 5.901 3.338Zm47.718-98.969c5.9 0 10.69 4.79 10.69 10.69 0 5.9-4.79 10.691-10.69 10.691-5.9 0-10.691-4.791-10.691-10.691s4.791-10.69 10.691-10.69Zm1.766 3.168a5.415 5.415 0 0 1 5.412 5.412 5.415 5.415 0 0 1-5.412 5.413 5.416 5.416 0 0 1-5.413-5.413 5.415 5.415 0 0 1 5.413-5.412Z"/>
</svg>
