<svg viewBox="0 0 192 192" xmlns="http://www.w3.org/2000/svg" fill-rule="evenodd">
  <path d="M46.938 111.283c-17.809-4.238-31.07-20.262-31.07-39.359 0-.244.002-.486.007-.727V54.082a13.537 13.537 0 0 1-.004-.349V32.272c0-9.585 7.782-17.367 17.367-17.367h5.685v-.032h19.789c32.565.037 60.524 19.895 72.454 48.149 25.108 1.726 44.966 22.665 44.966 48.205 0 .932-.275 3.707-1.233 4.912-1.389 1.747-3.624 1.826-3.624 1.826h-37.804c-10.056 30.85-38.67 53.35-72.632 54.293a19.305 19.305 0 0 1-12.841 4.869c-5.581 0-10.614-2.364-14.153-6.146a3.154 3.154 0 0 1-.435-.663c-.124-.256-.182-.512-.207-.614-.772-3.138 1.222-6.51 5.479-6.368.467.016 1.3.236 2.145.925 2.043 1.665 4.33 3.176 7.171 3.176 5.349 0 9.691-4.342 9.691-9.69a9.672 9.672 0 0 0-3.451-7.412 2.098 2.098 0 0 1-.429-.519c-.147-.264-.308-.845-.324-1.015-.446-4.856 2.617-6.385 6.237-5.991.106.011.502.091.762.234.152.085.305.203.354.246 3.987 3.55 6.541 8.703 6.541 14.457 0 1.447-.159 2.858-.461 4.215l.057-.026c10.833-5.037 14.781-12.968 15.782-16.751 4.766-18.014-10.384-33.087-22.573-32.989-.126.012-.252.024-.378.034l-13.33 13.291a4.886 4.886 0 0 1-7.09.179 4.886 4.886 0 0 1 .128-7.015l7.424-7.402Zm10.078-43.105c.38-.016.767-.023 1.162-.023 26.332 0 47.709 21.377 47.709 47.709 0 13.502-5.621 25.703-14.652 34.387a34.987 34.987 0 0 0 2.409-12.796c0-19.381-15.734-35.115-35.115-35.115a15.83 15.83 0 0 1-3.198-.322c-16.675-2.085-29.589-16.162-29.589-33.194 0-.216.002-.431.007-.646h31.267Zm.07-29.009a4.971 4.971 0 0 1 4.969 4.969 4.972 4.972 0 0 1-4.969 4.97 4.972 4.972 0 0 1-4.969-4.97 4.972 4.972 0 0 1 4.969-4.969Z"/>
</svg>
