<svg viewBox="0 0 192 192" xmlns="http://www.w3.org/2000/svg">
  <path d="M31.356 31.356c-5.91 0-10.776 4.86-10.776 10.77v107.748c0 5.91 4.866 10.77 10.776 10.77h129.288c5.91 0 10.776-4.86 10.776-10.77V42.126c0-5.91-4.866-10.77-10.776-10.77H31.356ZM160.644 20.58c11.8.055 21.493 9.746 21.552 21.546v107.748c-.059 11.8-9.752 21.491-21.552 21.546H31.356c-11.8-.055-21.493-9.746-21.552-21.546V42.126c.059-11.8 9.752-21.491 21.552-21.546h129.288Z" />
  <path d="M149.874 52.902c0-5.91-4.866-10.776-10.776-10.776h-21.552c-5.91 0-10.77 4.866-10.77 10.776v86.196c0 5.91 4.86 10.776 10.77 10.776h21.552c5.91 0 10.776-4.866 10.776-10.776V52.902Z" />
</svg>
