<svg viewBox="0 0 32 32" xmlns="http://www.w3.org/2000/svg" xml:space="preserve" style="fill-rule: evenodd" fill="#000000">
  <text x="10.62" y="15.703" style="font-family: 'ArialRoundedMTBold', 'Arial Rounded MT Bold', sans-serif; font-size:6.4px">Oh!</text>
  <path fill="#dddee8" d="M12.42 4.985v1.682h-1.054a2.63 2.63 0 0 0-2.629 2.629v19.645h-.024a2.158 2.158 0 0 1-2.157-2.157V7.142c0-1.19.967-2.157 2.157-2.157h3.707Zm7.258 0h3.695c1.027 0 1.888.72 2.104 1.682h-5.799V4.985Z" />
  <path d="M20.489 4.371h3.114c1.424 0 2.579 1.138 2.579 2.541v20.106c0 1.403-1.155 2.541-2.579 2.541H8.397c-1.424 0-2.579-1.138-2.579-2.541V6.912c0-1.403 1.155-2.541 2.579-2.541h3.154v.952H8.774c-1.05 0-1.903.853-1.903 1.903v19.543c0 1.05.853 1.903 1.903 1.903h14.469a1.904 1.904 0 0 0 1.903-1.903V7.226c0-1.05-.852-1.903-1.903-1.903h-2.754v-.952Z" />
  <path fill="#dddee8" d="M12.623 3.341h1.251v3.103h-1.251z" />
  <path fill="#dddee8" d="M12.623 3.341h6.891v.779h-6.891z" />
  <path d="M20.505 2.862a.423.423 0 0 0-.426-.421h-8.102a.423.423 0 0 0-.426.421v3.921c0 .233.191.421.426.421h8.102a.423.423 0 0 0 .426-.421V2.862Zm-1.042.914a.236.236 0 0 0-.237-.234h-6.322a.236.236 0 0 0-.237.234v2.095c0 .129.106.234.237.234h6.322a.236.236 0 0 0 .237-.234V3.776Z" />
  <path d="M21.78 20.321a.594.594 0 0 0-.594-.594H10.881a.594.594 0 0 0 0 1.187h10.305a.594.594 0 0 0 .594-.593ZM21.78 23.921a.594.594 0 0 0-.594-.594H10.881a.594.594 0 0 0 0 1.187h10.305a.594.594 0 0 0 .594-.593Z" />
</svg>
